<?xml version="1.0" encoding="utf-8"?>
<!-- Generator: Adobe Illustrator 24.0.1, SVG Export Plug-In . SVG Version: 6.00 Build 0)  -->
<svg version="1.1" id="Layer_1" xmlns="http://www.w3.org/2000/svg" xmlns:xlink="http://www.w3.org/1999/xlink" x="0px" y="0px"
	 viewBox="0 0 1000 1080" style="enable-background:new 0 0 1000 1080;" xml:space="preserve">
<style type="text/css">
	.st0{fill:#8A2BE2;}
</style>
<g>
	<path class="st0" d="M508.5,1059.5c-65.34,0-128.72-13.73-188.38-40.82c-57.63-26.16-109.39-63.62-153.84-111.33
		c-44.45-47.71-79.35-103.27-103.73-165.13C37.3,678.17,24.5,610.14,24.5,540s12.8-138.17,38.04-202.22
		c24.38-61.86,59.28-117.42,103.73-165.13c44.45-47.71,96.21-85.16,153.84-111.33C379.78,34.23,443.16,20.5,508.5,20.5
		c65.33,0,128.72,13.73,188.38,40.82c57.63,26.16,109.39,63.62,153.84,111.33c44.45,47.71,79.35,103.27,103.73,165.13
		C979.7,401.83,992.5,469.86,992.5,540s-12.8,138.17-38.04,202.22c-24.38,61.86-59.28,117.42-103.73,165.13
		c-44.45,47.71-96.21,85.16-153.84,111.33C637.22,1045.77,573.83,1059.5,508.5,1059.5z"/>
	<path d="M508.5,21c65.26,0,128.58,13.72,188.18,40.77c57.57,26.14,109.28,63.55,153.69,111.21
		c44.41,47.66,79.28,103.17,103.63,164.97c25.22,63.99,38,131.97,38,202.04s-12.79,138.05-38,202.04
		c-24.36,61.8-59.22,117.31-103.63,164.97c-44.41,47.66-96.11,85.08-153.69,111.21c-59.6,27.06-122.91,40.77-188.18,40.77
		s-128.58-13.72-188.18-40.77c-57.57-26.14-109.28-63.55-153.69-111.21C122.23,859.35,87.36,803.85,63,742.04
		C37.79,678.05,25,610.07,25,540s12.79-138.05,38-202.04c24.36-61.8,59.22-117.31,103.63-164.97
		c44.41-47.66,96.11-85.08,153.69-111.21C379.92,34.72,443.24,21,508.5,21 M508.5,20C240.92,20,24,252.81,24,540
		s216.92,520,484.5,520S993,827.19,993,540S776.08,20,508.5,20L508.5,20z"/>
</g>
</svg>
